<svg width="43" height="43" viewBox="0 0 43 43" fill="none" xmlns="http://www.w3.org/2000/svg">
<path d="M33.4084 30.5735C33.2075 30.584 33.0468 30.5925 32.884 30.5608C31.1372 28.7593 29.6229 26.7845 28.4174 24.5516C27.7935 23.4161 26.03 24.3551 26.654 25.4906C27.6332 27.252 28.7667 28.8843 30.0145 30.3898C18.2911 28.8726 11.3669 17.5136 9.13293 6.47148C8.86426 5.19641 6.91466 5.6618 7.1812 6.89669C9.47231 18.2581 16.6481 29.8052 28.2532 32.1345C25.8659 32.7035 23.5737 33.5496 21.3768 34.6726C20.827 34.9433 20.6706 35.7976 21.138 36.2564C21.986 37.0578 22.6415 37.265 23.8024 37.1232C24.6842 37.0364 24.756 36.106 24.2844 35.5668C27.0438 34.4141 29.9471 33.697 32.9561 33.4578C33.0407 33.5339 33.1253 33.61 33.2078 33.646C34.1784 34.4811 35.6374 33.115 34.6667 32.2798L34.6244 32.2418C34.6117 32.0007 34.5187 31.7639 34.3495 31.6116C34.36 31.047 34.0512 30.5396 33.4084 30.5735Z" fill="#605D56"/>
</svg>
