<svg width="152" height="56" viewBox="0 0 152 56" fill="none" xmlns="http://www.w3.org/2000/svg">
<g opacity="0.99" clip-path="url(#clip0_1047_10146)">
<path d="M0 0.35704C8.87873 0.35704 17.3768 -0.571375 25.5692 0.578384C37.7361 2.2815 44.5621 11.0553 49.1855 21.5384C51.9558 27.8221 52.6484 34.4563 51.0574 41.1458C49.0233 49.6921 44.2189 54.9245 35.7021 55.9144C30.6419 56.5046 26.2868 54.2727 23.2669 50.0242C22.331 48.7084 21.5386 47.2881 20.6089 45.9662C19.1239 43.8511 17.6264 43.1932 14.3944 43.3223C14.1635 45.5358 13.7517 47.8107 13.7393 50.0856C13.7268 52.1208 13.1777 53.123 10.9128 53.0061C8.21734 52.8647 5.50319 53.0922 2.81399 52.9078C1.91551 52.8463 1.06694 52.0039 0.199662 51.5182C0.78617 50.8234 1.23541 49.8704 1.98414 49.4769C4.7295 48.0259 5.01027 45.2898 5.05395 42.9288C5.25985 31.8862 5.30353 20.8436 5.02275 9.81334C4.95412 7.07729 5.09138 3.48045 0.923437 2.53359C0.467958 2.42906 0.299493 1.1133 0 0.35704ZM13.6831 34.7514C17.8885 34.3026 20.0848 36.4299 21.8568 39.2459C22.2873 39.9284 22.7428 40.6047 23.2294 41.2503C27.4473 46.8147 32.8881 47.2574 37.4554 43.1686C42.2909 38.8401 43.2892 33.4664 42.5967 27.404C41.0867 14.1111 27.5222 4.67325 13.8578 6.72068C13.8016 7.35397 13.6956 8.04259 13.6956 8.73122C13.6831 17.2837 13.6831 25.8362 13.6831 34.7514Z" fill="#332826"/>
<path d="M86.7718 15.6047C92.2749 15.3095 97.5903 13.1608 101.085 17.2317C103.726 20.314 105.164 24.4193 107.019 28.1263C108.166 30.4124 109.09 32.8014 110.188 35.3071C110.862 33.9272 111.39 32.8082 111.946 31.703C114.836 25.9639 114.044 22.3667 109.02 17.9456C108.513 17.4994 108.013 16.504 108.187 15.996C108.367 15.4811 109.361 15.028 110.056 14.9319C119.721 13.6138 122.993 15.6184 126.607 24.6046C127.982 28.0165 129.726 31.2774 131.554 35.1423C133.694 30.4948 135.514 26.5337 137.342 22.5795C138.377 20.3484 138.794 18.5154 135.375 17.9868C134.576 17.8632 133.965 16.5383 133.27 15.7626C133.465 15.4742 133.659 15.1859 133.847 14.8976C138.092 14.8976 142.338 14.8495 146.583 14.9456C147.243 14.9594 147.889 15.5978 148.535 15.9479C148.077 16.655 147.688 17.417 147.146 18.0486C146.09 19.2843 144.554 20.2728 143.894 21.6733C139.391 31.1538 135.097 40.7304 130.63 50.2246C130.122 51.2955 128.934 52.0576 128.059 52.9569C127.218 52.0164 126.12 51.1926 125.571 50.1079C122.785 44.5748 120.145 38.9661 117.331 33.1172C114.572 39.1583 112.05 44.8219 109.361 50.41C108.874 51.426 107.721 52.1262 106.873 52.9706C105.942 52.0644 104.657 51.323 104.143 50.2246C99.5359 40.4215 95.0889 30.5428 90.5169 20.7191C90.0653 19.7511 89.1203 19.0234 88.4672 18.1378C87.8627 17.3278 87.3346 16.4559 86.7718 15.6047Z" fill="#332826"/>
<path d="M73.6569 14.8228C78.9174 14.4726 83.3546 16.2443 87.0313 19.9044C90.4639 23.3105 90.7499 27.465 89.0197 31.5234C87.3871 35.3484 83.8988 37.072 79.629 37.2437C76.7616 37.3604 73.9011 37.6626 71.0476 37.9304C68.6825 38.157 68.6058 39.6678 69.2267 41.3845C70.7895 45.6833 76.9499 47.0979 80.7802 44.0764C81.8546 43.2318 82.8732 42.3047 84.0383 41.5974C84.9104 41.0686 85.9639 40.8352 86.9406 40.4712C87.0732 41.7141 87.7988 43.4927 87.2267 44.1176C84.8825 46.6653 82.4964 49.57 79.4755 51.0533C69.7081 55.8603 58.4267 51.2456 54.9732 41.4944C50.4104 28.6049 58.4476 14.0674 73.6569 14.8228ZM67.9081 33.405C71.5011 31.1732 74.6964 29.6419 77.3057 27.4375C79.5453 25.5491 79.036 21.58 76.936 19.9662C74.5918 18.167 71.836 18.8812 69.736 21.7036C67.322 24.9585 67.2034 28.5569 67.9081 33.405Z" fill="#332826"/>
</g>
<defs>
<clipPath id="clip0_1047_10146">
<rect width="152" height="56" fill="white"/>
</clipPath>
</defs>
</svg>
