<svg width="24" height="24" viewBox="0 0 24 24" fill="none" xmlns="http://www.w3.org/2000/svg">
<path d="M22 13C21.7348 13 21.4804 13.1054 21.2929 13.2929C21.1054 13.4804 21 13.7348 21 14V18.213C20.9992 18.9519 20.7053 19.6603 20.1828 20.1828C19.6603 20.7053 18.9519 20.9992 18.213 21H5.787C5.04809 20.9992 4.33966 20.7053 3.81717 20.1828C3.29468 19.6603 3.00079 18.9519 3 18.213V14C3 13.7348 2.89464 13.4804 2.70711 13.2929C2.51957 13.1054 2.26522 13 2 13C1.73478 13 1.48043 13.1054 1.29289 13.2929C1.10536 13.4804 1 13.7348 1 14V18.213C1.00132 19.4822 1.50609 20.699 2.40354 21.5965C3.30099 22.4939 4.51782 22.9987 5.787 23H18.213C19.4822 22.9987 20.699 22.4939 21.5965 21.5965C22.4939 20.699 22.9987 19.4822 23 18.213V14C23 13.7348 22.8946 13.4804 22.7071 13.2929C22.5196 13.1054 22.2652 13 22 13Z" fill="black"/>
<path d="M6.70741 8.70679L11.0004 4.41379V16.9998C11.0004 17.265 11.1058 17.5194 11.2933 17.7069C11.4808 17.8944 11.7352 17.9998 12.0004 17.9998C12.2656 17.9998 12.52 17.8944 12.7075 17.7069C12.8951 17.5194 13.0004 17.265 13.0004 16.9998V4.41379L17.2934 8.70679C17.482 8.88894 17.7346 8.98974 17.9968 8.98746C18.259 8.98518 18.5098 8.88001 18.6952 8.6946C18.8806 8.5092 18.9858 8.25838 18.9881 7.99619C18.9904 7.73399 18.8896 7.48139 18.7074 7.29279L12.7074 1.29279C12.5199 1.10532 12.2656 1 12.0004 1C11.7352 1 11.4809 1.10532 11.2934 1.29279L5.29341 7.29279C5.11125 7.48139 5.01045 7.73399 5.01273 7.99619C5.01501 8.25838 5.12018 8.5092 5.30559 8.6946C5.491 8.88001 5.74181 8.98518 6.00401 8.98746C6.2662 8.98974 6.5188 8.88894 6.70741 8.70679Z" fill="black"/>
</svg>
