<svg width="17" height="16" viewBox="0 0 17 16" fill="none" xmlns="http://www.w3.org/2000/svg">
<path fill-rule="evenodd" clip-rule="evenodd" d="M1.1915 0.348901C1.40564 0.134648 1.69602 0.0142878 1.99881 0.0142878C2.30159 0.0142878 2.59198 0.134648 2.80611 0.348901L8.85004 6.39804L14.894 0.348901C14.9993 0.239747 15.1253 0.152681 15.2646 0.092785C15.4039 0.032889 15.5538 0.0013618 15.7054 4.31509e-05C15.857 -0.0012755 16.0074 0.0276405 16.1477 0.0851044C16.288 0.142568 16.4155 0.227429 16.5227 0.334735C16.6299 0.442041 16.7147 0.569643 16.7721 0.710096C16.8296 0.850549 16.8585 1.00104 16.8571 1.15279C16.8558 1.30454 16.8243 1.4545 16.7645 1.59393C16.7046 1.73337 16.6176 1.85948 16.5086 1.9649L10.4646 8.01404L16.5086 14.0632C16.7166 14.2787 16.8317 14.5674 16.8291 14.8671C16.8265 15.1667 16.7064 15.4534 16.4947 15.6653C16.283 15.8772 15.9966 15.9974 15.6972 16C15.3978 16.0026 15.1093 15.8874 14.894 15.6792L8.85004 9.63004L2.80611 15.6792C2.59075 15.8874 2.30231 16.0026 2.00292 16C1.70352 15.9974 1.41712 15.8772 1.20541 15.6653C0.9937 15.4534 0.87361 15.1667 0.871008 14.8671C0.868407 14.5674 0.983501 14.2787 1.1915 14.0632L7.23543 8.01404L1.1915 1.9649C0.977435 1.75058 0.857178 1.45995 0.857178 1.1569C0.857178 0.853856 0.977435 0.563218 1.1915 0.348901Z" fill="#332826"/>
</svg>
