<svg width="25" height="25" viewBox="0 0 25 25" fill="none" xmlns="http://www.w3.org/2000/svg">
<g clip-path="url(#clip0_1047_8719)">
<path d="M12.208 2.76494C15.4143 2.76494 15.7939 2.779 17.0549 2.83525C18.2268 2.88682 18.8596 3.08369 19.2814 3.24775C19.8393 3.46338 20.2424 3.72588 20.6596 4.14307C21.0814 4.56494 21.3393 4.96338 21.5549 5.52119C21.7189 5.94307 21.9158 6.58057 21.9674 7.74775C22.0236 9.01338 22.0377 9.39307 22.0377 12.5946C22.0377 15.8009 22.0236 16.1806 21.9674 17.4415C21.9158 18.6134 21.7189 19.2462 21.5549 19.6681C21.3393 20.2259 21.0768 20.629 20.6596 21.0462C20.2377 21.4681 19.8393 21.7259 19.2814 21.9415C18.8596 22.1056 18.2221 22.3024 17.0549 22.354C15.7893 22.4103 15.4096 22.4243 12.208 22.4243C9.00176 22.4243 8.62207 22.4103 7.36113 22.354C6.18926 22.3024 5.55645 22.1056 5.13457 21.9415C4.57676 21.7259 4.17363 21.4634 3.75645 21.0462C3.33457 20.6243 3.07676 20.2259 2.86113 19.6681C2.69707 19.2462 2.5002 18.6087 2.44863 17.4415C2.39238 16.1759 2.37832 15.7962 2.37832 12.5946C2.37832 9.38838 2.39238 9.00869 2.44863 7.74775C2.5002 6.57588 2.69707 5.94307 2.86113 5.52119C3.07676 4.96338 3.33926 4.56025 3.75645 4.14307C4.17832 3.72119 4.57676 3.46338 5.13457 3.24775C5.55645 3.08369 6.19395 2.88682 7.36113 2.83525C8.62207 2.779 9.00176 2.76494 12.208 2.76494ZM12.208 0.604004C8.9502 0.604004 8.54238 0.618066 7.2627 0.674316C5.9877 0.730566 5.11113 0.936816 4.35176 1.23213C3.55957 1.5415 2.88926 1.94932 2.22363 2.61963C1.55332 3.28525 1.14551 3.95557 0.836133 4.74307C0.54082 5.50713 0.33457 6.379 0.27832 7.654C0.22207 8.93838 0.208008 9.34619 0.208008 12.604C0.208008 15.8618 0.22207 16.2696 0.27832 17.5493C0.33457 18.8243 0.54082 19.7009 0.836133 20.4603C1.14551 21.2524 1.55332 21.9228 2.22363 22.5884C2.88926 23.254 3.55957 23.6665 4.34707 23.9712C5.11113 24.2665 5.98301 24.4728 7.25801 24.529C8.5377 24.5853 8.94551 24.5993 12.2033 24.5993C15.4611 24.5993 15.8689 24.5853 17.1486 24.529C18.4236 24.4728 19.3002 24.2665 20.0596 23.9712C20.8471 23.6665 21.5174 23.254 22.183 22.5884C22.8486 21.9228 23.2611 21.2524 23.5658 20.4649C23.8611 19.7009 24.0674 18.829 24.1236 17.554C24.1799 16.2743 24.1939 15.8665 24.1939 12.6087C24.1939 9.35088 24.1799 8.94307 24.1236 7.66338C24.0674 6.38838 23.8611 5.51182 23.5658 4.75244C23.2705 3.95557 22.8627 3.28525 22.1924 2.61963C21.5268 1.954 20.8564 1.5415 20.0689 1.23682C19.3049 0.941504 18.433 0.735254 17.158 0.679004C15.8736 0.618066 15.4658 0.604004 12.208 0.604004Z" fill="#67645F"/>
<path d="M12.208 6.43994C8.80488 6.43994 6.04395 9.20088 6.04395 12.604C6.04395 16.0071 8.80488 18.7681 12.208 18.7681C15.6111 18.7681 18.3721 16.0071 18.3721 12.604C18.3721 9.20088 15.6111 6.43994 12.208 6.43994ZM12.208 16.6024C10.0002 16.6024 8.20957 14.8118 8.20957 12.604C8.20957 10.3962 10.0002 8.60557 12.208 8.60557C14.4158 8.60557 16.2064 10.3962 16.2064 12.604C16.2064 14.8118 14.4158 16.6024 12.208 16.6024Z" fill="#67645F"/>
<path d="M20.0549 6.19614C20.0549 6.99302 19.408 7.63521 18.6158 7.63521C17.8189 7.63521 17.1768 6.98833 17.1768 6.19614C17.1768 5.39927 17.8236 4.75708 18.6158 4.75708C19.408 4.75708 20.0549 5.40396 20.0549 6.19614Z" fill="#67645F"/>
</g>
<defs>
<clipPath id="clip0_1047_8719">
<rect width="24" height="24" fill="white" transform="translate(0.208008 0.604004)"/>
</clipPath>
</defs>
</svg>
