<svg width="22" height="22" viewBox="0 0 22 22" fill="none" xmlns="http://www.w3.org/2000/svg">
<path d="M15.125 1.375H6.875C6.32799 1.375 5.80339 1.5923 5.41659 1.97909C5.0298 2.36589 4.8125 2.89049 4.8125 3.4375V18.5625C4.8125 19.1095 5.0298 19.6341 5.41659 20.0209C5.80339 20.4077 6.32799 20.625 6.875 20.625H15.125C15.672 20.625 16.1966 20.4077 16.5834 20.0209C16.9702 19.6341 17.1875 19.1095 17.1875 18.5625V3.4375C17.1875 2.89049 16.9702 2.36589 16.5834 1.97909C16.1966 1.5923 15.672 1.375 15.125 1.375ZM15.8125 18.5625C15.8125 18.7448 15.7401 18.9197 15.6111 19.0486C15.4822 19.1776 15.3073 19.25 15.125 19.25H6.875C6.69266 19.25 6.5178 19.1776 6.38886 19.0486C6.25993 18.9197 6.1875 18.7448 6.1875 18.5625V3.4375C6.1875 3.25516 6.25993 3.0803 6.38886 2.95136C6.5178 2.82243 6.69266 2.75 6.875 2.75H15.125C15.3073 2.75 15.4822 2.82243 15.6111 2.95136C15.7401 3.0803 15.8125 3.25516 15.8125 3.4375V18.5625ZM14.4375 4.8125C14.4375 4.99484 14.3651 5.1697 14.2361 5.29864C14.1072 5.42757 13.9323 5.5 13.75 5.5H8.25C8.06766 5.5 7.8928 5.42757 7.76386 5.29864C7.63493 5.1697 7.5625 4.99484 7.5625 4.8125C7.5625 4.63016 7.63493 4.4553 7.76386 4.32636C7.8928 4.19743 8.06766 4.125 8.25 4.125H13.75C13.9323 4.125 14.1072 4.19743 14.2361 4.32636C14.3651 4.4553 14.4375 4.63016 14.4375 4.8125Z" fill="black"/>
</svg>
