<svg width="117" height="148" viewBox="0 0 117 148" fill="none" xmlns="http://www.w3.org/2000/svg">
<ellipse cx="58.5" cy="57" rx="58.5" ry="57" fill="white" fill-opacity="0.28"/>
<g clip-path="url(#clip0_1770_316)">
<circle cx="58.4999" cy="56.5" r="20.9483" fill="black"/>
<path d="M58.5 16C36.1669 16 18 34.1687 18 56.5C18 78.8313 36.1669 97 58.5 97C80.8331 97 99 78.8313 99 56.5C99 34.1687 80.8331 16 58.5 16ZM74.6005 57.9189L50.9755 73.1064C50.7035 73.2821 50.3864 73.3754 50.0626 73.3751C49.7857 73.3751 49.5055 73.3058 49.2551 73.1691C48.9887 73.0242 48.7663 72.81 48.6114 72.5493C48.4565 72.2885 48.3748 71.9908 48.375 71.6875V41.3125C48.375 40.6946 48.7112 40.1276 49.2551 39.8309C49.789 39.5376 50.4581 39.5557 50.9755 39.8936L74.6005 55.0811C75.0817 55.3908 75.3751 55.9265 75.3751 56.5C75.3751 57.0735 75.0817 57.609 74.6005 57.9189Z" fill="white"/>
</g>
<path d="M16.0864 144.128C15.2331 144.128 14.4438 143.989 13.7184 143.712C13.0038 143.424 12.3798 143.024 11.8464 142.512C11.3238 141.989 10.9131 141.381 10.6144 140.688C10.3158 139.995 10.1664 139.232 10.1664 138.4C10.1664 137.568 10.3158 136.805 10.6144 136.112C10.9131 135.419 11.3291 134.816 11.8624 134.304C12.3958 133.781 13.0198 133.381 13.7344 133.104C14.4598 132.816 15.2491 132.672 16.1024 132.672C16.9664 132.672 17.7611 132.821 18.4864 133.12C19.2224 133.408 19.8464 133.84 20.3584 134.416L19.3184 135.424C18.8918 134.976 18.4118 134.645 17.8784 134.432C17.3451 134.208 16.7744 134.096 16.1664 134.096C15.5371 134.096 14.9504 134.203 14.4064 134.416C13.8731 134.629 13.4091 134.928 13.0144 135.312C12.6198 135.696 12.3104 136.155 12.0864 136.688C11.8731 137.211 11.7664 137.781 11.7664 138.4C11.7664 139.019 11.8731 139.595 12.0864 140.128C12.3104 140.651 12.6198 141.104 13.0144 141.488C13.4091 141.872 13.8731 142.171 14.4064 142.384C14.9504 142.597 15.5371 142.704 16.1664 142.704C16.7744 142.704 17.3451 142.597 17.8784 142.384C18.4118 142.16 18.8918 141.819 19.3184 141.36L20.3584 142.368C19.8464 142.944 19.2224 143.381 18.4864 143.68C17.7611 143.979 16.9611 144.128 16.0864 144.128ZM22.4169 144V132.128H23.9529V144H22.4169ZM26.8857 144V135.52H28.4217V144H26.8857ZM27.6537 133.888C27.355 133.888 27.1044 133.792 26.9017 133.6C26.7097 133.408 26.6137 133.173 26.6137 132.896C26.6137 132.608 26.7097 132.368 26.9017 132.176C27.1044 131.984 27.355 131.888 27.6537 131.888C27.9524 131.888 28.1977 131.984 28.3897 132.176C28.5924 132.357 28.6937 132.587 28.6937 132.864C28.6937 133.152 28.5977 133.397 28.4057 133.6C28.2137 133.792 27.963 133.888 27.6537 133.888ZM35.0504 144.096C34.1864 144.096 33.4131 143.909 32.7304 143.536C32.0584 143.163 31.5304 142.651 31.1464 142C30.7624 141.349 30.5704 140.603 30.5704 139.76C30.5704 138.917 30.7624 138.171 31.1464 137.52C31.5304 136.869 32.0584 136.363 32.7304 136C33.4131 135.627 34.1864 135.44 35.0504 135.44C35.8184 135.44 36.5011 135.595 37.0984 135.904C37.7064 136.203 38.1758 136.651 38.5064 137.248L37.3384 138C37.0611 137.584 36.7198 137.28 36.3144 137.088C35.9198 136.885 35.4931 136.784 35.0344 136.784C34.4798 136.784 33.9838 136.907 33.5464 137.152C33.1091 137.397 32.7624 137.744 32.5064 138.192C32.2504 138.629 32.1224 139.152 32.1224 139.76C32.1224 140.368 32.2504 140.896 32.5064 141.344C32.7624 141.792 33.1091 142.139 33.5464 142.384C33.9838 142.629 34.4798 142.752 35.0344 142.752C35.4931 142.752 35.9198 142.656 36.3144 142.464C36.7198 142.261 37.0611 141.952 37.3384 141.536L38.5064 142.272C38.1758 142.859 37.7064 143.312 37.0984 143.632C36.5011 143.941 35.8184 144.096 35.0504 144.096ZM41.6337 141.952L41.6657 139.984L46.5457 135.52H48.4017L44.6577 139.2L43.8257 139.904L41.6337 141.952ZM40.3857 144V132.128H41.9217V144H40.3857ZM46.8657 144L43.5377 139.872L44.5297 138.64L48.7537 144H46.8657ZM57.4539 144.096C56.6006 144.096 55.9393 143.867 55.4699 143.408C55.0006 142.949 54.7659 142.293 54.7659 141.44V133.664H56.3019V141.376C56.3019 141.835 56.4139 142.187 56.6379 142.432C56.8726 142.677 57.2033 142.8 57.6299 142.8C58.1099 142.8 58.5099 142.667 58.8299 142.4L59.3099 143.504C59.0753 143.707 58.7926 143.856 58.4619 143.952C58.1419 144.048 57.8059 144.096 57.4539 144.096ZM53.3259 136.784V135.52H58.7339V136.784H53.3259ZM64.5177 144.096C63.6644 144.096 62.907 143.909 62.2457 143.536C61.5844 143.163 61.0617 142.651 60.6777 142C60.2937 141.339 60.1017 140.592 60.1017 139.76C60.1017 138.917 60.2937 138.171 60.6777 137.52C61.0617 136.869 61.5844 136.363 62.2457 136C62.907 135.627 63.6644 135.44 64.5177 135.44C65.3604 135.44 66.1124 135.627 66.7737 136C67.4457 136.363 67.9684 136.869 68.3417 137.52C68.7257 138.16 68.9177 138.907 68.9177 139.76C68.9177 140.603 68.7257 141.349 68.3417 142C67.9684 142.651 67.4457 143.163 66.7737 143.536C66.1124 143.909 65.3604 144.096 64.5177 144.096ZM64.5177 142.752C65.0617 142.752 65.547 142.629 65.9737 142.384C66.411 142.139 66.7524 141.792 66.9977 141.344C67.243 140.885 67.3657 140.357 67.3657 139.76C67.3657 139.152 67.243 138.629 66.9977 138.192C66.7524 137.744 66.411 137.397 65.9737 137.152C65.547 136.907 65.0617 136.784 64.5177 136.784C63.9737 136.784 63.4884 136.907 63.0617 137.152C62.635 137.397 62.2937 137.744 62.0377 138.192C61.7817 138.629 61.6537 139.152 61.6537 139.76C61.6537 140.357 61.7817 140.885 62.0377 141.344C62.2937 141.792 62.635 142.139 63.0617 142.384C63.4884 142.629 63.9737 142.752 64.5177 142.752ZM79.8348 144.096C79.1308 144.096 78.4855 143.936 77.8988 143.616C77.3228 143.285 76.8588 142.8 76.5068 142.16C76.1655 141.52 75.9948 140.72 75.9948 139.76C75.9948 138.8 76.1601 138 76.4908 137.36C76.8321 136.72 77.2908 136.24 77.8668 135.92C78.4535 135.6 79.1095 135.44 79.8348 135.44C80.6668 135.44 81.4028 135.621 82.0428 135.984C82.6828 136.347 83.1895 136.853 83.5628 137.504C83.9361 138.144 84.1228 138.896 84.1228 139.76C84.1228 140.624 83.9361 141.381 83.5628 142.032C83.1895 142.683 82.6828 143.189 82.0428 143.552C81.4028 143.915 80.6668 144.096 79.8348 144.096ZM75.3388 147.104V135.52H76.8108V137.808L76.7148 139.776L76.8748 141.744V147.104H75.3388ZM79.7068 142.752C80.2508 142.752 80.7361 142.629 81.1628 142.384C81.6001 142.139 81.9415 141.792 82.1868 141.344C82.4428 140.885 82.5708 140.357 82.5708 139.76C82.5708 139.152 82.4428 138.629 82.1868 138.192C81.9415 137.744 81.6001 137.397 81.1628 137.152C80.7361 136.907 80.2508 136.784 79.7068 136.784C79.1735 136.784 78.6881 136.907 78.2508 137.152C77.8241 137.397 77.4828 137.744 77.2268 138.192C76.9815 138.629 76.8588 139.152 76.8588 139.76C76.8588 140.357 76.9815 140.885 77.2268 141.344C77.4828 141.792 77.8241 142.139 78.2508 142.384C78.6881 142.629 79.1735 142.752 79.7068 142.752ZM86.2451 144V132.128H87.7811V144H86.2451ZM95.9778 144V142.208L95.8978 141.872V138.816C95.8978 138.165 95.7058 137.664 95.3218 137.312C94.9485 136.949 94.3831 136.768 93.6258 136.768C93.1245 136.768 92.6338 136.853 92.1538 137.024C91.6738 137.184 91.2685 137.403 90.9378 137.68L90.2978 136.528C90.7351 136.176 91.2578 135.909 91.8658 135.728C92.4845 135.536 93.1298 135.44 93.8018 135.44C94.9645 135.44 95.8605 135.723 96.4898 136.288C97.1191 136.853 97.4338 137.717 97.4338 138.88V144H95.9778ZM93.1938 144.096C92.5645 144.096 92.0098 143.989 91.5298 143.776C91.0605 143.563 90.6978 143.269 90.4418 142.896C90.1858 142.512 90.0578 142.08 90.0578 141.6C90.0578 141.141 90.1645 140.725 90.3778 140.352C90.6018 139.979 90.9591 139.68 91.4498 139.456C91.9511 139.232 92.6231 139.12 93.4658 139.12H96.1538V140.224H93.5298C92.7618 140.224 92.2445 140.352 91.9778 140.608C91.7111 140.864 91.5778 141.173 91.5778 141.536C91.5778 141.952 91.7431 142.288 92.0738 142.544C92.4045 142.789 92.8631 142.912 93.4498 142.912C94.0258 142.912 94.5271 142.784 94.9538 142.528C95.3911 142.272 95.7058 141.899 95.8978 141.408L96.2018 142.464C95.9991 142.965 95.6418 143.365 95.1298 143.664C94.6178 143.952 93.9725 144.096 93.1938 144.096ZM100.488 147.2C100.083 147.2 99.6881 147.131 99.3041 146.992C98.9201 146.864 98.5894 146.672 98.3121 146.416L98.9681 145.264C99.1814 145.467 99.4161 145.621 99.6721 145.728C99.9281 145.835 100.2 145.888 100.488 145.888C100.861 145.888 101.171 145.792 101.416 145.6C101.661 145.408 101.891 145.067 102.104 144.576L102.632 143.408L102.792 143.216L106.12 135.52H107.624L103.512 144.848C103.267 145.445 102.989 145.915 102.68 146.256C102.381 146.597 102.051 146.837 101.688 146.976C101.325 147.125 100.925 147.2 100.488 147.2ZM102.504 144.272L98.6321 135.52H100.232L103.528 143.072L102.504 144.272Z" fill="white"/>
<defs>
<clipPath id="clip0_1770_316">
<rect width="81" height="81" fill="white" transform="translate(18 16)"/>
</clipPath>
</defs>
</svg>
