<svg width="28" height="27" viewBox="0 0 28 27" fill="none" xmlns="http://www.w3.org/2000/svg">
<path d="M2.88425 14.6251L22.4046 14.6251L16.5294 20.5797C16.4234 20.6835 16.3388 20.8076 16.2806 20.9449C16.2225 21.0821 16.1918 21.2298 16.1906 21.3791C16.1893 21.5285 16.2174 21.6767 16.2732 21.8149C16.329 21.9532 16.4114 22.0788 16.5156 22.1844C16.6198 22.29 16.7438 22.3736 16.8802 22.4301C17.0166 22.4867 17.1628 22.5152 17.3102 22.5139C17.4575 22.5126 17.6032 22.4815 17.7386 22.4226C17.874 22.3636 17.9965 22.2779 18.0989 22.1705L25.8689 14.2955C26.0769 14.0845 26.1938 13.7984 26.1938 13.5001C26.1938 13.2018 26.0769 12.9157 25.8689 12.7047L18.0989 4.82971C17.8896 4.62479 17.6092 4.51139 17.3181 4.51396C17.0271 4.51652 16.7487 4.63484 16.5429 4.84342C16.3371 5.052 16.2204 5.33417 16.2178 5.62914C16.2153 5.92411 16.3272 6.20829 16.5294 6.42047L22.4046 12.3751L2.88425 12.3751C2.58986 12.3751 2.30753 12.4936 2.09937 12.7046C1.8912 12.9156 1.77426 13.2017 1.77426 13.5001C1.77426 13.7985 1.8912 14.0846 2.09937 14.2956C2.30753 14.5066 2.58986 14.6251 2.88425 14.6251Z" fill="#67645F"/>
</svg>
