<svg width="29" height="27" viewBox="0 0 29 27" fill="none" xmlns="http://www.w3.org/2000/svg">
<path d="M13.0813 1.66981C13.5158 0.332741 15.4074 0.332737 15.8418 1.6698L18.0457 8.45267C18.24 9.05063 18.7972 9.45547 19.4259 9.45547H26.5579C27.9637 9.45547 28.5483 11.2545 27.4109 12.0808L21.641 16.2729C21.1324 16.6424 20.9196 17.2975 21.1138 17.8954L23.3177 24.6783C23.7522 26.0154 22.2218 27.1272 21.0845 26.3009L15.3146 22.1088C14.806 21.7393 14.1172 21.7393 13.6085 22.1088L7.83869 26.3009C6.70132 27.1272 5.17098 26.0154 5.60542 24.6783L7.80931 17.8955C8.00359 17.2975 7.79076 16.6424 7.2821 16.2729L1.51225 12.0808C0.374878 11.2545 0.959408 9.45547 2.36528 9.45547H9.49722C10.1259 9.45547 10.6832 9.05063 10.8775 8.45267L13.0813 1.66981Z" fill="#F4BC22"/>
</svg>
