<svg width="35" height="34" viewBox="0 0 35 34" fill="none" xmlns="http://www.w3.org/2000/svg">
<path d="M16.6414 1.23236C16.8697 0.529712 17.8637 0.529711 18.092 1.23236L21.5735 11.9472C21.6756 12.2614 21.9684 12.4742 22.2988 12.4742H33.5651C34.3039 12.4742 34.611 13.4196 34.0133 13.8538L24.8988 20.476C24.6315 20.6702 24.5196 21.0144 24.6217 21.3287L28.1032 32.0435C28.3315 32.7461 27.5273 33.3304 26.9295 32.8962L17.815 26.274C17.5477 26.0798 17.1857 26.0798 16.9184 26.274L7.80385 32.8962C7.20614 33.3304 6.40192 32.7461 6.63023 32.0435L10.1117 21.3287C10.2138 21.0144 10.1019 20.6702 9.83463 20.476L0.72006 13.8538C0.122348 13.4196 0.42953 12.4742 1.16834 12.4742H12.4346C12.765 12.4742 13.0578 12.2614 13.1599 11.9472L16.6414 1.23236Z" fill="#E7B76F"/>
</svg>
