<svg width="28" height="28" viewBox="0 0 28 28" fill="none" xmlns="http://www.w3.org/2000/svg">
<g clip-path="url(#clip0_1047_8720)">
<path d="M19.5623 0H14.9769V18.5329C14.9769 20.7411 13.2134 22.555 11.0187 22.555C8.82399 22.555 7.06041 20.7411 7.06041 18.5329C7.06041 16.3642 8.78481 14.5897 10.9011 14.5109V9.85796C6.23741 9.93678 2.4751 13.7617 2.4751 18.5329C2.4751 23.3436 6.31579 27.2079 11.0579 27.2079C15.7999 27.2079 19.6406 23.3042 19.6406 18.5329V9.02985C21.365 10.2917 23.4813 11.0409 25.7152 11.0803V6.42738C22.2664 6.30908 19.5623 3.46999 19.5623 0Z" fill="#67645F"/>
</g>
<defs>
<clipPath id="clip0_1047_8720">
<rect width="27.2079" height="27.2079" fill="white" transform="translate(0.208008)"/>
</clipPath>
</defs>
</svg>
