<svg width="408" height="151" viewBox="0 0 408 151" fill="none" xmlns="http://www.w3.org/2000/svg">
<g opacity="0.99" clip-path="url(#clip0_1047_9175)">
<path d="M0 0.958318C23.8324 0.958318 46.6431 -1.53374 68.6332 1.55245C101.292 6.12398 119.614 29.6748 132.024 57.8136C139.46 74.6804 141.319 92.4879 137.049 110.444C131.589 133.384 118.693 147.429 95.8319 150.086C82.2493 151.67 70.5592 145.679 62.4532 134.275C59.941 130.743 57.814 126.931 55.3186 123.383C51.3325 117.706 47.313 115.94 38.6376 116.286C38.0179 122.228 36.9125 128.334 36.879 134.44C36.8456 139.903 35.3717 142.593 29.2922 142.28C22.0571 141.9 14.7717 142.511 7.55334 142.016C5.14163 141.85 2.8639 139.589 0.535935 138.286C2.11024 136.421 3.3161 133.863 5.32586 132.806C12.695 128.912 13.4486 121.567 13.5659 115.23C14.1185 85.5893 14.2358 55.9487 13.4821 26.341C13.2979 18.9969 13.6663 9.3422 2.4787 6.80063C1.2561 6.52007 0.803903 2.98827 0 0.958318ZM36.7283 93.2801C48.0164 92.0753 53.9117 97.7856 58.6682 105.344C59.8238 107.176 61.0464 108.992 62.3527 110.724C73.6743 125.66 88.2786 126.849 100.538 115.874C113.518 104.255 116.197 89.8308 114.338 73.5581C110.285 37.8771 73.8753 12.5439 37.1973 18.0397C37.0465 19.7395 36.7618 21.588 36.7618 23.4364C36.7283 46.393 36.7283 69.3497 36.7283 93.2801Z" fill="url(#paint0_linear_1047_9175)"/>
<path d="M232.914 41.8879C247.685 41.0955 261.953 35.3279 271.334 46.2551C278.421 54.5288 282.282 65.5481 287.262 75.4987C290.339 81.6349 292.82 88.0474 295.767 94.7733C297.576 91.0695 298.993 88.0659 300.485 85.0991C308.244 69.6942 306.118 60.0385 292.633 48.1715C291.272 46.9737 289.929 44.3018 290.395 42.9382C290.88 41.5562 293.547 40.34 295.412 40.082C321.356 36.5441 330.14 41.9247 339.838 66.0456C343.531 75.2038 348.213 83.9567 353.118 94.331C358.862 81.856 363.749 71.2236 368.654 60.6097C371.433 54.6209 372.552 49.7009 363.376 48.282C361.231 47.9504 359.59 44.394 357.725 42.3117C358.247 41.5378 358.769 40.7638 359.273 39.9899C370.668 39.9899 382.064 39.8609 393.459 40.1189C395.231 40.1558 396.966 41.8695 398.7 42.8092C397.469 44.7072 396.425 46.7526 394.97 48.4479C392.135 51.7647 388.013 54.4182 386.242 58.1773C374.156 83.625 362.63 109.331 350.637 134.815C349.276 137.69 346.086 139.735 343.736 142.149C341.48 139.625 338.533 137.413 337.059 134.502C329.581 119.65 322.493 104.595 314.94 88.8951C307.535 105.111 300.765 120.313 293.547 135.313C292.242 138.04 289.146 139.919 286.87 142.186C284.371 139.754 280.921 137.763 279.541 134.815C267.175 108.501 255.239 81.985 242.966 55.616C241.754 53.0178 239.218 51.0645 237.464 48.6874C235.842 46.5131 234.424 44.1728 232.914 41.8879Z" fill="url(#paint1_linear_1047_9175)"/>
<path d="M197.711 39.7876C211.831 38.8476 223.742 43.6032 233.611 53.4277C242.824 62.5703 243.592 73.722 238.948 84.6157C234.566 94.8827 225.202 99.5092 213.741 99.9701C206.044 100.283 198.366 101.094 190.707 101.813C184.359 102.422 184.153 106.477 185.819 111.085C190.014 122.624 206.55 126.421 216.831 118.31C219.715 116.043 222.449 113.555 225.577 111.656C227.918 110.237 230.745 109.61 233.367 108.633C233.723 111.97 235.671 116.744 234.135 118.421C227.843 125.26 221.438 133.057 213.329 137.038C187.111 149.941 156.83 137.554 147.56 111.38C135.312 76.7818 156.886 37.76 197.711 39.7876ZM182.28 89.6662C191.924 83.6756 200.501 79.5652 207.505 73.6483C213.517 68.5793 212.149 57.9253 206.513 53.5936C200.22 48.7643 192.823 50.6813 187.186 58.2571C180.707 66.9941 180.388 76.6528 182.28 89.6662Z" fill="url(#paint2_linear_1047_9175)"/>
</g>
<defs>
<linearGradient id="paint0_linear_1047_9175" x1="69.6521" y1="0.0078125" x2="69.6521" y2="150.337" gradientUnits="userSpaceOnUse">
<stop stop-color="#987B5E" stop-opacity="0.18"/>
<stop offset="1" stop-color="#C4A280" stop-opacity="0"/>
</linearGradient>
<linearGradient id="paint1_linear_1047_9175" x1="315.807" y1="39.0957" x2="315.807" y2="142.186" gradientUnits="userSpaceOnUse">
<stop stop-color="#987B5E" stop-opacity="0.18"/>
<stop offset="1" stop-color="#C4A280" stop-opacity="0"/>
</linearGradient>
<linearGradient id="paint2_linear_1047_9175" x1="192.937" y1="39.6709" x2="192.937" y2="142.185" gradientUnits="userSpaceOnUse">
<stop stop-color="#987B5E" stop-opacity="0.18"/>
<stop offset="1" stop-color="#C4A280" stop-opacity="0"/>
</linearGradient>
<clipPath id="clip0_1047_9175">
<rect width="408" height="150.316" fill="white"/>
</clipPath>
</defs>
</svg>
