<svg width="125" height="46" viewBox="0 0 125 46" fill="none" xmlns="http://www.w3.org/2000/svg">
<g opacity="0.99" clip-path="url(#clip0_1047_10033)">
<path d="M0 0.292829C7.29324 0.292829 14.2738 -0.469797 21.0033 0.474647C30.9975 1.87364 36.6046 9.08071 40.4024 17.6918C42.678 22.8534 43.2469 28.3029 41.94 33.7979C40.2691 40.8181 36.3227 45.1161 29.3267 45.9292C25.1701 46.414 21.5927 44.5807 19.1121 41.0908C18.3433 40.01 17.6924 38.8433 16.9287 37.7575C15.7089 36.0201 14.4788 35.4797 11.824 35.5858C11.6343 37.4039 11.2961 39.2726 11.2858 41.1413C11.2756 42.813 10.8245 43.6363 8.96407 43.5403C6.74996 43.4241 4.52048 43.611 2.31149 43.4595C1.57345 43.409 0.876419 42.7171 0.164008 42.3181C0.645782 41.7474 1.0148 40.9646 1.62983 40.6413C3.88494 39.4494 4.11558 37.2019 4.15146 35.2625C4.32059 26.1918 4.35647 17.1211 4.12583 8.06051C4.06945 5.81303 4.18221 2.85849 0.758538 2.08071C0.384394 1.99485 0.246012 0.914041 0 0.292829ZM11.2397 28.5454C14.6941 28.1767 16.4982 29.9241 17.9538 32.2373C18.3074 32.7979 18.6816 33.3534 19.0813 33.8837C22.546 38.4544 27.0152 38.8181 30.7669 35.4595C34.739 31.9039 35.559 27.4898 34.9901 22.51C33.7498 11.5908 22.6075 3.83828 11.3832 5.5201C11.3371 6.0403 11.2499 6.60596 11.2499 7.17162C11.2397 14.1969 11.2397 21.2221 11.2397 28.5454Z" fill="#332826"/>
<path d="M71.2768 12.8183C75.7972 12.5759 80.1635 10.8108 83.0344 14.1548C85.2032 16.6867 86.3847 20.0589 87.9086 23.104C88.8504 24.9818 89.6095 26.9442 90.5113 29.0025C91.0649 27.869 91.4987 26.9498 91.9553 26.0419C94.3296 21.3277 93.6789 18.3728 89.5524 14.7413C89.1357 14.3747 88.7248 13.5571 88.8675 13.1398C89.0159 12.7168 89.8321 12.3447 90.4028 12.2657C98.342 11.183 101.03 12.8296 103.998 20.2112C105.128 23.0138 106.561 25.6923 108.062 28.8671C109.82 25.0495 111.315 21.7957 112.816 18.5476C113.667 16.7149 114.009 15.2093 111.201 14.7751C110.545 14.6736 110.043 13.5853 109.472 12.948C109.632 12.7112 109.791 12.4744 109.945 12.2375C113.433 12.2375 116.92 12.198 120.407 12.277C120.95 12.2883 121.48 12.8127 122.011 13.1003C121.635 13.6811 121.315 14.3071 120.87 14.8258C120.002 15.8409 118.741 16.6529 118.199 17.8033C114.5 25.5908 110.973 33.4573 107.303 41.2561C106.886 42.1358 105.91 42.7618 105.191 43.5005C104.5 42.7279 103.599 42.0512 103.148 41.1603C100.859 36.6152 98.6902 32.0081 96.3786 27.2036C94.1127 32.166 92.0409 36.8182 89.8321 41.4084C89.4325 42.243 88.4851 42.8182 87.7888 43.5118C87.0239 42.7674 85.968 42.1584 85.5457 41.2561C81.7616 33.2036 78.1087 25.0889 74.3532 17.0194C73.9822 16.2243 73.2059 15.6266 72.6694 14.8992C72.1729 14.2337 71.7391 13.5176 71.2768 12.8183Z" fill="#332826"/>
<path d="M60.5039 12.1763C64.825 11.8887 68.4698 13.344 71.49 16.3505C74.3096 19.1484 74.5446 22.561 73.1233 25.8947C71.7823 29.0367 68.9168 30.4525 65.4095 30.5935C63.0541 30.6894 60.7045 30.9376 58.3605 31.1576C56.4178 31.3437 56.3547 32.5847 56.8648 33.9949C58.1485 37.526 63.2089 38.688 66.3551 36.2061C67.2377 35.5123 68.0744 34.7508 69.0315 34.1698C69.7478 33.7354 70.6132 33.5436 71.4155 33.2447C71.5244 34.2657 72.1204 35.7266 71.6505 36.2399C69.7249 38.3327 67.7649 40.7187 65.2835 41.9371C57.2602 45.8857 47.9934 42.0951 45.1566 34.0852C41.4086 23.4974 48.0105 11.5559 60.5039 12.1763ZM55.7816 27.4403C58.733 25.6071 61.3578 24.3492 63.5012 22.5385C65.3408 20.9873 64.9224 17.7269 63.1974 16.4013C61.2718 14.9234 59.0081 15.51 57.2831 17.8284C55.3002 20.5021 55.2028 23.4579 55.7816 27.4403Z" fill="#332826"/>
</g>
<defs>
<clipPath id="clip0_1047_10033">
<rect width="124.857" height="46" fill="white"/>
</clipPath>
</defs>
</svg>
