<svg width="157" height="58" viewBox="0 0 157 58" fill="none" xmlns="http://www.w3.org/2000/svg">
<g opacity="0.65" clip-path="url(#clip0_1101_11308)">
<path d="M0.561035 0.863363C9.66626 0.863363 18.3812 -0.0816304 26.7825 1.08866C39.2598 2.82219 46.2599 11.7527 51.0013 22.423C53.8423 28.8189 54.5525 35.5715 52.9209 42.3805C50.8349 51.0794 45.908 56.4052 37.1739 57.4128C31.9846 58.0136 27.5184 55.7418 24.4215 51.4174C23.4617 50.0781 22.649 48.6325 21.6956 47.2869C20.1728 45.1341 18.6371 44.4645 15.3226 44.5959C15.0859 46.8489 14.6636 49.1644 14.6508 51.48C14.638 53.5514 14.0749 54.5715 11.7522 54.4526C8.98801 54.3087 6.20461 54.5402 3.44681 54.3525C2.52541 54.2899 1.6552 53.4325 0.765791 52.9381C1.36726 52.231 1.82796 51.2609 2.59579 50.8604C5.41118 49.3835 5.69912 46.5985 5.74391 44.1954C5.95506 32.9556 5.99985 21.7158 5.71192 10.4885C5.64153 7.70361 5.7823 4.04255 1.50803 3.07878C1.04093 2.97239 0.868168 1.63313 0.561035 0.863363ZM14.5932 35.8719C18.9059 35.4151 21.1582 37.5804 22.9754 40.4467C23.4169 41.1414 23.884 41.8298 24.3831 42.4869C28.7085 48.1506 34.2881 48.6012 38.9719 44.4395C43.9308 40.0337 44.9546 34.564 44.2444 28.3933C42.6959 14.863 28.7853 5.25664 14.7723 7.34064C14.7148 7.98523 14.606 8.68616 14.606 9.38708C14.5932 18.0923 14.5932 26.7975 14.5932 35.8719Z" fill="#545454"/>
<path d="M89.5464 16.384C95.1898 16.0835 100.641 13.8964 104.225 18.04C106.933 21.1774 108.408 25.356 110.31 29.1293C111.486 31.4561 112.434 33.8878 113.56 36.4382C114.251 35.0337 114.792 33.8948 115.362 32.7698C118.327 26.9282 117.514 23.2667 112.362 18.7667C111.842 18.3126 111.329 17.2994 111.507 16.7823C111.693 16.2582 112.712 15.797 113.424 15.6992C123.336 14.3576 126.692 16.398 130.397 25.5447C131.808 29.0175 133.597 32.3365 135.471 36.2705C137.665 31.54 139.532 27.5082 141.406 23.4833C142.468 21.2124 142.896 19.3467 139.39 18.8087C138.57 18.6829 137.943 17.3343 137.231 16.5447C137.43 16.2512 137.63 15.9578 137.822 15.6643C142.176 15.6643 146.53 15.6154 150.883 15.7132C151.56 15.7272 152.223 16.377 152.886 16.7334C152.415 17.4531 152.016 18.2287 151.461 18.8716C150.377 20.1293 148.803 21.1355 148.126 22.561C143.508 32.2108 139.105 41.9584 134.523 51.6221C134.003 52.7122 132.784 53.4878 131.887 54.4032C131.024 53.4459 129.899 52.6074 129.336 51.5034C126.478 45.8714 123.771 40.1626 120.885 34.2092C118.056 40.3582 115.469 46.123 112.712 51.8108C112.213 52.845 111.03 53.5577 110.161 54.4172C109.206 53.4948 107.888 52.7401 107.36 51.6221C102.636 41.6439 98.0757 31.5889 93.3871 21.5897C92.9239 20.6045 91.9548 19.8638 91.285 18.9624C90.6651 18.1379 90.1236 17.2505 89.5464 16.384Z" fill="#545454"/>
<path d="M76.0977 15.5872C81.4923 15.2308 86.0427 17.0341 89.8133 20.7596C93.3334 24.2265 93.6267 28.4552 91.8524 32.5861C90.1782 36.4794 86.6008 38.2338 82.2221 38.4085C79.2815 38.5273 76.3481 38.8349 73.4218 39.1075C70.9964 39.3381 70.9176 40.8759 71.5544 42.6233C73.1571 46.9988 79.4747 48.4387 83.4026 45.3632C84.5045 44.5035 85.549 43.5599 86.7439 42.84C87.6382 42.3018 88.7186 42.0641 89.7203 41.6937C89.8562 42.9588 90.6003 44.7691 90.0136 45.4052C87.6096 47.9983 85.1627 50.955 82.0647 52.4647C72.0481 57.3575 60.4789 52.6605 56.9373 42.7351C52.2581 29.6155 60.5004 14.8184 76.0977 15.5872ZM70.2022 34.5013C73.8869 32.2296 77.1637 30.6709 79.8396 28.4273C82.1362 26.5051 81.614 22.4651 79.4604 20.8225C77.0564 18.9912 74.2303 19.7181 72.0767 22.5909C69.6012 25.904 69.4796 29.5666 70.2022 34.5013Z" fill="#545454"/>
</g>
<defs>
<clipPath id="clip0_1101_11308">
<rect width="155.878" height="57" fill="white" transform="translate(0.561035 0.5)"/>
</clipPath>
</defs>
</svg>
