<svg width="85" height="22" viewBox="0 0 85 22" fill="none" xmlns="http://www.w3.org/2000/svg">
<mask id="mask0_1047_10418" style="mask-type:luminance" maskUnits="userSpaceOnUse" x="0" y="0" width="85" height="22">
<path d="M0.0230713 0H84.7602V21.67H0.0230713V0Z" fill="white"/>
</mask>
<g mask="url(#mask0_1047_10418)">
<path fill-rule="evenodd" clip-rule="evenodd" d="M27.0263 4.854H31.664C33.2244 4.854 34.3947 5.2874 35.0882 6.11086C35.695 6.84764 35.8684 7.93114 35.6517 9.27468C35.2182 12.3518 33.4411 13.9554 30.3204 13.9554H28.8467C28.5433 13.9554 28.2399 14.1721 28.1965 14.5188L27.7631 17.8993C27.7631 18.2461 27.4597 18.5061 27.1563 18.5061H24.9024C24.8454 18.5007 24.79 18.484 24.7394 18.4571C24.6889 18.4301 24.6442 18.3934 24.6079 18.3491C24.5716 18.3048 24.5445 18.2537 24.5281 18.1988C24.5117 18.1439 24.5063 18.0863 24.5123 18.0294L26.4194 5.46076C26.4628 5.0707 26.7229 4.854 27.0696 4.854H27.0263ZM29.4535 11.225C30.7105 11.225 31.9675 11.225 32.2275 9.44804C32.3142 8.84128 32.2275 8.36454 32.0108 8.06116C31.5774 7.58442 30.7972 7.58442 29.9736 7.58442H29.6269C29.533 7.592 29.4442 7.62994 29.3738 7.69249C29.3034 7.75505 29.2553 7.83882 29.2368 7.93114L28.76 11.225H29.4535ZM43.4536 9.4047H45.7074C45.9675 9.4047 46.1409 9.6214 46.0975 9.8381L44.8839 17.8993C44.8406 18.2461 44.5805 18.5061 44.2338 18.5061H42.2399C41.9799 18.5061 41.8065 18.2461 41.8065 18.0294L41.9365 17.3793C41.9365 17.3793 40.8096 18.6795 38.8158 18.6795C37.6455 18.6795 36.6486 18.3327 35.9984 17.5093C35.6124 17.0025 35.336 16.4211 35.1868 15.8018C35.0375 15.1825 35.0187 14.539 35.1316 13.9121C35.565 11.1383 37.7322 9.14466 40.1594 9.14466C41.243 9.14466 42.3266 9.4047 42.8468 10.1415L42.9768 10.4015L43.0635 9.75142C43.0837 9.65206 43.1382 9.56294 43.2174 9.49959C43.2966 9.43624 43.3955 9.40266 43.4969 9.4047H43.4536ZM40.0727 16.2091C41.3731 16.2091 42.37 15.3423 42.5867 13.9554C42.6734 13.3053 42.5867 12.7419 42.1966 12.3085C41.8498 11.8751 41.3297 11.6584 40.7229 11.6584C39.4226 11.6584 38.3823 12.6119 38.209 13.9121C38.0789 14.5622 38.209 15.1689 38.5557 15.559C38.8591 15.9924 39.4226 16.2091 40.0727 16.2091Z" fill="#253B80"/>
<path d="M57.6701 9.40479H55.4162C55.1995 9.40479 54.9828 9.49146 54.8961 9.70816L51.7753 14.4756L50.475 9.88152C50.345 9.57814 50.0849 9.40479 49.8249 9.40479H47.6143C47.3109 9.40479 47.1809 9.66482 47.2242 9.92486L49.6948 17.5527L47.3976 21.0199C47.1809 21.2799 47.3976 21.67 47.701 21.67H49.9549C50.1716 21.67 50.3883 21.54 50.475 21.3666L57.9735 10.0115C58.1902 9.75151 57.9735 9.40479 57.6701 9.40479Z" fill="#253B80"/>
<path fill-rule="evenodd" clip-rule="evenodd" d="M60.4443 4.854H65.1255C66.7292 4.854 67.8995 5.2874 68.593 6.11086C69.1564 6.84764 69.3731 7.93114 69.1564 9.27468C68.723 12.3518 66.9025 13.9554 63.8251 13.9554H62.3515C62.0047 13.9554 61.7446 14.1721 61.7013 14.5188L61.1378 18.0727C61.1378 18.3327 60.9211 18.5061 60.7044 18.5061H58.2771C58.0604 18.5061 57.8437 18.2461 57.9304 18.0294L59.7942 5.46076C59.8375 5.0707 60.1409 4.854 60.4443 4.854ZM62.9149 11.225C64.1285 11.225 65.4289 11.225 65.6889 9.44804C65.7756 8.84128 65.6889 8.36454 65.4722 8.06116C65.0388 7.58442 64.2586 7.58442 63.3917 7.58442H63.0883C62.9869 7.58238 62.888 7.61596 62.8088 7.67931C62.7296 7.74266 62.6751 7.83178 62.6549 7.93114L62.2214 11.225H62.9149ZM76.915 9.4047H79.1688C79.3856 9.4047 79.6023 9.6214 79.5589 9.8381L78.3453 17.8993C78.2586 18.2461 77.9986 18.5061 77.6952 18.5061H75.658C75.3979 18.5061 75.2246 18.2461 75.2679 18.0294L75.3546 17.3793C75.3546 17.3793 74.271 18.6795 72.2772 18.6795C71.1069 18.6795 70.11 18.3327 69.4598 17.5093C69.0738 17.0025 68.7974 16.4211 68.6482 15.8018C68.499 15.1825 68.4801 14.539 68.593 13.9121C69.0264 11.1383 71.1502 9.14466 73.6208 9.14466C74.7044 9.14466 75.788 9.4047 76.2648 10.1415L76.4382 10.4015L76.5249 9.75142C76.5434 9.6591 76.5915 9.57533 76.6619 9.51277C76.7323 9.45021 76.8211 9.41228 76.915 9.4047ZM73.4908 16.2091C74.7911 16.2091 75.788 15.3423 76.0047 13.9554C76.1348 13.3053 76.0047 12.7419 75.658 12.3085C75.3112 11.8751 74.7911 11.6584 74.141 11.6584C72.8406 11.6584 71.8437 12.6119 71.627 13.9121C71.5403 14.5622 71.627 15.1689 71.9738 15.559C72.3205 15.9924 72.8406 16.2091 73.4908 16.2091Z" fill="#179BD7"/>
<path d="M81.8128 5.20081L79.8623 18.0295C79.8623 18.2462 80.0357 18.4629 80.2958 18.4629H82.2029C82.5063 18.4629 82.8097 18.2462 82.8531 17.8994L84.7168 5.33083C84.7602 5.07079 84.5868 4.85409 84.3701 4.85409H82.2029C82.1015 4.85205 82.0026 4.88562 81.9234 4.94898C81.8442 5.01233 81.7897 5.10144 81.7695 5.20081H81.8128Z" fill="#179BD7"/>
<path d="M5.00761 20.9331L5.35436 18.5494H0.759918L3.36055 0.866719C3.37136 0.83684 3.38862 0.809704 3.41109 0.787235C3.43356 0.764766 3.4607 0.747513 3.49058 0.736699C3.52809 0.708567 3.57372 0.693359 3.62061 0.693359H9.99215C12.1593 0.693359 13.5897 1.12676 14.3699 2.08024C14.7367 2.46126 14.9786 2.94506 15.0634 3.46712C15.1756 4.08326 15.1756 4.7146 15.0634 5.33074V5.85082L15.4535 6.11086C15.7569 6.28422 15.9736 6.45758 16.1903 6.67428C16.491 7.08225 16.6848 7.55906 16.7538 8.06116C16.8565 9.55728 16.5572 11.0536 15.8869 12.3952C15.5727 12.9454 15.1491 13.4254 14.6421 13.8055C14.1352 14.1857 13.5558 14.4579 12.9395 14.6055C12.3327 14.7789 11.6392 14.8655 10.859 14.8655H10.3389C9.99215 14.8655 9.6454 14.9956 9.38533 15.2556C9.10632 15.5033 8.92239 15.8404 8.86521 16.2091L8.82187 16.4258L8.17171 20.6298V20.7598L8.12836 20.8465C8.11988 20.8615 8.10709 20.8737 8.09164 20.8814C8.0762 20.8891 8.0588 20.892 8.04168 20.8898H4.96427L5.00761 20.9331Z" fill="#253B80"/>
<path d="M15.8435 5.50439L15.7569 5.93779C14.89 10.4452 11.9859 12.0054 8.30172 12.0054H6.3946C5.96116 12.0054 5.57106 12.3955 5.52772 12.8722L4.53081 19.2865L4.27075 21.0635C4.22741 21.4102 4.44413 21.6702 4.74753 21.6702H8.08501C8.51844 21.6702 8.82185 21.3668 8.90854 20.9768V20.7601L9.55869 16.5994V16.3827C9.59004 16.176 9.69504 15.9876 9.85434 15.8522C10.0136 15.7169 10.2165 15.6436 10.4256 15.646H10.859C14.1098 15.646 16.6671 14.2591 17.4039 10.2718C17.7073 8.62487 17.5773 7.23799 16.7538 6.24117C16.4981 5.94181 16.1896 5.69205 15.8435 5.50439Z" fill="#179BD7"/>
<path d="M14.9333 5.11404C14.6629 5.03852 14.3878 4.98061 14.1098 4.94066C13.5653 4.85182 13.0144 4.80833 12.4627 4.81063H7.39152C7.26149 4.81063 7.17481 4.81063 7.04477 4.89732C6.92668 4.9642 6.82593 5.05787 6.75065 5.17079C6.67536 5.28372 6.62764 5.41274 6.61134 5.54748L5.52774 12.6559V12.8292C5.5493 12.6147 5.65007 12.4158 5.81036 12.2716C5.97066 12.1273 6.17897 12.048 6.39462 12.049H8.30174C11.986 12.049 14.89 10.4453 15.7569 5.89423L15.8002 5.50413C15.5783 5.38297 15.3463 5.28145 15.1067 5.20073C15.0494 5.17097 14.9916 5.14207 14.9333 5.11404Z" fill="#222D65"/>
<path d="M6.61132 5.54752C6.62763 5.4128 6.67535 5.28378 6.75063 5.17087C6.82592 5.05795 6.92666 4.96429 7.04476 4.89742L7.39151 4.81074H12.4627C13.0262 4.81074 13.5897 4.85408 14.1098 4.94076C14.4485 5.00094 14.7818 5.08789 15.1067 5.2008L15.8436 5.50418C16.0603 3.81392 15.8436 2.68708 14.9767 1.60358C13.9364 0.52008 12.2027 0 9.99214 0H3.6206C3.18717 0 2.75373 0.34672 2.71038 0.82346L0.0230672 18.5929C-0.0202766 18.9396 0.239786 19.2863 0.586537 19.2863H4.53082L5.52773 12.6553L6.61132 5.54752Z" fill="#253B80"/>
</g>
</svg>
