<svg width="80" height="19" viewBox="0 0 80 19" fill="none" xmlns="http://www.w3.org/2000/svg">
<g clip-path="url(#clip0_1047_10433)">
<g clip-path="url(#clip1_1047_10433)">
<g clip-path="url(#clip2_1047_10433)">
<path fill-rule="evenodd" clip-rule="evenodd" d="M53.3201 0.109863C51.7139 0.109863 50.4118 1.39325 50.4118 2.97639V16.0133C50.4118 17.5965 51.7139 18.8799 53.3201 18.8799H77.0208C78.6271 18.8799 79.9291 17.5965 79.9291 16.0133V2.97639C79.9291 1.39325 78.6271 0.109863 77.0208 0.109863H53.3201ZM57.4716 13.2177V9.91313H59.5809C61.5079 9.91313 62.5326 8.84822 62.5326 7.23438C62.5326 5.62055 61.5079 4.65446 59.5809 4.65446H56.1128V13.2177H57.4716ZM57.4716 5.92796H59.269C60.5164 5.92796 61.1292 6.43295 61.1292 7.27831C61.1292 8.12364 60.5387 8.62866 59.3245 8.62866H57.4716V5.92796ZM64.9284 13.3933C65.9643 13.3933 66.6437 12.9432 66.9556 12.1747C67.0448 13.031 67.5684 13.4702 68.7045 13.1737L68.7157 12.2625C68.2589 12.3064 68.1698 12.1418 68.1698 11.6697V9.43009C68.1698 8.11267 67.2898 7.33319 65.6637 7.33319C64.0595 7.33319 63.1351 8.12364 63.1351 9.46302H64.3827C64.3827 8.82627 64.8393 8.44203 65.6414 8.44203C66.4878 8.44203 66.8778 8.80432 66.8665 9.43009V9.71552L65.4296 9.86923C63.8145 10.0449 62.9235 10.6487 62.9235 11.7026C62.9235 12.5699 63.5471 13.3933 64.9284 13.3933ZM65.2068 12.4052C64.5051 12.4052 64.2267 12.032 64.2267 11.6587C64.2267 11.1537 64.806 10.9231 65.942 10.7914L66.8332 10.6926C66.7774 11.6587 66.1203 12.4052 65.2068 12.4052ZM72.8416 13.6458C72.2736 15.0071 71.3602 15.4133 69.9345 15.4133H69.3217V14.2935H69.9791C70.7586 14.2935 71.1374 14.052 71.5497 13.3604L69.0211 7.50884H70.4244L72.2291 11.7795L73.833 7.50884H75.203L72.8416 13.6458Z" fill="#5A31F4"/>
<path d="M6.9357 8.36028C5.07503 7.96246 4.2461 7.80679 4.2461 7.1001C4.2461 6.43542 4.80707 6.10433 5.929 6.10433C6.91568 6.10433 7.63692 6.52933 8.16783 7.36202C8.20789 7.42628 8.29053 7.44851 8.35814 7.41392L10.4517 6.37119C10.5269 6.33411 10.5544 6.24023 10.5118 6.16856C9.64285 4.68355 8.0376 3.87061 5.92398 3.87061C3.14673 3.87061 1.42126 5.21974 1.42126 7.3645C1.42126 9.64269 3.52236 10.2184 5.38556 10.6162C7.24874 11.0141 8.08017 11.1697 8.08017 11.8764C8.08017 12.5831 7.47414 12.9167 6.26455 12.9167C5.14764 12.9167 4.31873 12.4126 3.81786 11.4341C3.78031 11.3624 3.69265 11.3328 3.62004 11.3699L1.53145 12.3903C1.45883 12.4274 1.42878 12.5139 1.46634 12.588C2.29526 14.2312 3.99567 15.1553 6.26706 15.1553C9.15953 15.1553 10.9075 13.8284 10.9075 11.617C10.9075 9.40547 8.79639 8.76305 6.9357 8.36523V8.36028Z" fill="#5A31F4"/>
<path d="M18.155 3.8706C16.9679 3.8706 15.9186 4.28573 15.1648 5.02451C15.1173 5.069 15.0396 5.03687 15.0396 4.97264V0.255648C15.0396 0.174107 14.9745 0.109863 14.8919 0.109863H12.2724C12.1898 0.109863 12.1246 0.174107 12.1246 0.255648V14.8959C12.1246 14.9774 12.1898 15.0416 12.2724 15.0416H14.8919C14.9745 15.0416 15.0396 14.9774 15.0396 14.8959V8.47392C15.0396 7.23354 16.0038 6.28223 17.3035 6.28223C18.6032 6.28223 19.5449 7.21377 19.5449 8.47392V14.8959C19.5449 14.9774 19.61 15.0416 19.6926 15.0416H22.3121C22.3947 15.0416 22.4598 14.9774 22.4598 14.8959V8.47392C22.4598 5.77568 20.6668 3.87308 18.155 3.87308V3.8706Z" fill="#5A31F4"/>
<path d="M27.7789 3.45317C26.3565 3.45317 25.0193 3.88063 24.0625 4.50082C23.9975 4.54285 23.975 4.62932 24.0151 4.69604L25.1694 6.64064C25.2121 6.70982 25.3021 6.73454 25.3723 6.69254C26.0986 6.26013 26.9299 6.03527 27.7789 6.04022C30.0653 6.04022 31.7456 7.63149 31.7456 9.73423C31.7456 11.5256 30.4009 12.8525 28.6954 12.8525C27.3057 12.8525 26.3415 12.0544 26.3415 10.9277C26.3415 10.2828 26.6194 9.754 27.3432 9.3809C27.4182 9.34136 27.4459 9.24995 27.4009 9.17828L26.3115 7.35968C26.2763 7.3004 26.2013 7.27322 26.1335 7.29791C24.6736 7.83163 23.6492 9.11651 23.6492 10.8412C23.6492 13.4505 25.7555 15.3976 28.6931 15.3976C32.1239 15.3976 34.5906 13.0527 34.5906 9.68977C34.5906 6.08468 31.7207 3.45068 27.774 3.45068L27.7789 3.45317Z" fill="#5A31F4"/>
<path d="M42.251 3.85061C40.9262 3.85061 39.7442 4.33243 38.8802 5.18243C38.8326 5.22938 38.755 5.19479 38.755 5.13055V4.1076C38.755 4.02605 38.69 3.96179 38.6072 3.96179H36.0554C35.9728 3.96179 35.9077 4.02605 35.9077 4.1076V18.7256C35.9077 18.8071 35.9728 18.8713 36.0554 18.8713H38.6748C38.7576 18.8713 38.8228 18.8071 38.8228 18.7256V13.932C38.8228 13.8677 38.9004 13.8356 38.9478 13.8776C39.8094 14.6683 40.9487 15.1304 42.2536 15.1304C45.3263 15.1304 47.7228 12.6767 47.7228 9.48925C47.7228 6.30175 45.3237 3.84814 42.2536 3.84814L42.251 3.85061ZM41.7578 12.6545C40.0097 12.6545 38.6849 11.2831 38.6849 9.46948C38.6849 7.65583 40.0071 6.28447 41.7578 6.28447C43.5083 6.28447 44.8279 7.6336 44.8279 9.46948C44.8279 11.3054 43.5256 12.6545 41.7552 12.6545H41.7578Z" fill="#5A31F4"/>
</g>
</g>
</g>
<defs>
<clipPath id="clip0_1047_10433">
<rect width="80" height="18.77" fill="white" transform="translate(0 0.109863)"/>
</clipPath>
<clipPath id="clip1_1047_10433">
<rect width="80" height="18.77" fill="white" transform="translate(0 0.109863)"/>
</clipPath>
<clipPath id="clip2_1047_10433">
<rect width="79.9717" height="18.77" fill="white" transform="translate(0.0141602 0.109863)"/>
</clipPath>
</defs>
</svg>
