<svg width="190" height="47" viewBox="0 0 190 47" fill="none" xmlns="http://www.w3.org/2000/svg">
<g opacity="0.8">
<rect width="190" height="47" rx="7.83161" fill="#592FF4"/>
<path fill-rule="evenodd" clip-rule="evenodd" d="M108.403 14.8428C106.753 14.8428 105.415 16.1613 105.415 17.788V31.1831C105.415 32.8096 106.753 34.1281 108.403 34.1281H132.759C134.409 34.1281 135.747 32.8096 135.747 31.1831V17.788C135.747 16.1616 134.409 14.8428 132.759 14.8428H108.403ZM112.669 28.3106V24.9154H114.837C116.817 24.9154 117.87 23.821 117.87 22.1629C117.87 20.5049 116.817 19.5124 114.837 19.5124H111.273V28.3106H112.669ZM112.669 20.8205H114.516C115.798 20.8205 116.428 21.3396 116.428 22.208C116.428 23.0764 115.821 23.5955 114.574 23.5955H112.669V20.8205ZM120.332 28.4911C121.397 28.4911 122.095 28.0284 122.415 27.239C122.507 28.1185 123.045 28.5699 124.213 28.2655L124.224 27.3292C123.755 27.3742 123.663 27.2051 123.663 26.72V24.4188C123.663 23.0653 122.759 22.2646 121.088 22.2646C119.439 22.2646 118.489 23.0767 118.489 24.4526H119.771C119.771 23.7986 120.241 23.4037 121.065 23.4037C121.935 23.4037 122.335 23.7759 122.324 24.4191V24.7123L120.847 24.8701C119.188 25.0506 118.272 25.6711 118.272 26.754C118.272 27.6451 118.913 28.4911 120.332 28.4911ZM120.618 27.4759C119.897 27.4759 119.611 27.0923 119.611 26.7087C119.611 26.1899 120.206 25.953 121.374 25.8176L122.29 25.7162C122.232 26.7089 121.557 27.4759 120.618 27.4759ZM128.464 28.7506C127.88 30.1491 126.942 30.5665 125.477 30.5665H124.847V29.4161H125.522C126.324 29.4161 126.713 29.1679 127.136 28.4573L124.538 22.4453H125.98L127.835 26.8333L129.483 22.4453H130.891L128.464 28.7506Z" fill="white"/>
<path d="M60.7377 23.3198C58.8256 22.9109 57.9736 22.7511 57.9736 22.0249C57.9736 21.342 58.5501 21.0018 59.703 21.0018C60.7169 21.0018 61.4582 21.4386 62.0036 22.294C62.0448 22.3601 62.1299 22.383 62.1993 22.3475L64.3507 21.276C64.369 21.2669 64.3851 21.2542 64.3982 21.2386C64.4113 21.223 64.4211 21.2048 64.4268 21.1853C64.4326 21.1658 64.4343 21.1453 64.4319 21.125C64.4294 21.1048 64.4228 21.0853 64.4124 21.0678C63.5195 19.542 61.8699 18.7069 59.698 18.7069C56.8438 18.7069 55.0708 20.0929 55.0708 22.2967C55.0708 24.6374 57.2302 25.229 59.1447 25.6376C61.0592 26.0465 61.9137 26.2063 61.9137 26.9326C61.9137 27.6588 61.291 28.0012 60.0479 28.0012C58.9 28.0012 58.0483 27.4832 57.5336 26.4781C57.5152 26.4426 57.4836 26.4157 57.4456 26.4033C57.4075 26.391 57.3661 26.3941 57.3304 26.4121L55.1841 27.4605C55.1662 27.4693 55.1503 27.4816 55.1373 27.4966C55.1242 27.5117 55.1143 27.5291 55.108 27.548C55.1018 27.5669 55.0994 27.5869 55.1009 27.6067C55.1025 27.6266 55.108 27.6459 55.1171 27.6636C55.969 29.3518 57.7163 30.3014 60.0503 30.3014C63.0228 30.3014 64.819 28.9381 64.819 26.6658C64.819 24.3935 62.6497 23.7335 60.7377 23.3249V23.3198ZM72.2668 18.7069C71.0469 18.7069 69.9687 19.1334 69.1941 19.8924C69.1452 19.9382 69.0654 19.9052 69.0654 19.8391V14.9927C69.0655 14.9728 69.0616 14.9531 69.0539 14.9348C69.0463 14.9164 69.0351 14.8998 69.021 14.8859C69.0068 14.8719 68.99 14.8609 68.9716 14.8535C68.9532 14.8461 68.9334 14.8425 68.9136 14.8428H66.2216C66.2017 14.8425 66.182 14.8461 66.1636 14.8535C66.1451 14.8609 66.1283 14.8719 66.1142 14.8859C66.1001 14.8998 66.0889 14.9164 66.0812 14.9348C66.0736 14.9531 66.0697 14.9728 66.0698 14.9927V30.0349C66.0697 30.0548 66.0737 30.0744 66.0813 30.0927C66.0889 30.1111 66.1002 30.1277 66.1143 30.1416C66.1284 30.1555 66.1452 30.1665 66.1636 30.1739C66.182 30.1813 66.2018 30.1849 66.2216 30.1846H68.9136C68.9334 30.1849 68.9531 30.1813 68.9715 30.1739C68.99 30.1665 69.0067 30.1555 69.0209 30.1416C69.035 30.1277 69.0462 30.1111 69.0539 30.0927C69.0615 30.0744 69.0654 30.0548 69.0654 30.0349V23.4364C69.0654 22.162 70.0559 21.1847 71.3918 21.1847C72.7274 21.1847 73.695 22.1418 73.695 23.4364V30.0349C73.695 30.0548 73.6989 30.0744 73.7065 30.0927C73.7142 30.1111 73.7254 30.1277 73.7395 30.1416C73.7537 30.1555 73.7704 30.1665 73.7888 30.1739C73.8073 30.1813 73.827 30.1849 73.8468 30.1846H76.5388C76.5586 30.1849 76.5783 30.1813 76.5968 30.1739C76.6152 30.1665 76.632 30.1555 76.6461 30.1416C76.6602 30.1277 76.6714 30.1111 76.6791 30.0927C76.6867 30.0744 76.6906 30.0548 76.6906 30.0349V23.4364C76.6906 20.6642 74.8479 18.7093 72.2668 18.7093V18.7069ZM82.1565 18.2777C80.6948 18.2777 79.3206 18.717 78.3374 19.3541C78.305 19.3748 78.2818 19.4073 78.2727 19.4447C78.2637 19.4821 78.2694 19.5215 78.2887 19.5548L79.4749 21.5528C79.5187 21.6239 79.6113 21.6492 79.6833 21.6059C80.4312 21.1613 81.2864 20.9297 82.1565 20.936C84.506 20.936 86.2327 22.5709 86.2327 24.7311C86.2327 26.5721 84.8509 27.9352 83.0983 27.9352C81.6701 27.9352 80.6794 27.1152 80.6794 25.9576C80.6794 25.295 80.965 24.7516 81.7087 24.3682C81.727 24.3592 81.7431 24.3464 81.7562 24.3307C81.7692 24.3151 81.7788 24.2969 81.7844 24.2773C81.79 24.2577 81.7914 24.2371 81.7886 24.2169C81.7858 24.1967 81.7787 24.1774 81.768 24.1601L80.6485 22.2916C80.6302 22.2614 80.6019 22.2385 80.5685 22.2269C80.5352 22.2153 80.4988 22.2157 80.4656 22.228C78.9654 22.7765 77.9127 24.0967 77.9127 25.8687C77.9127 28.5496 80.0771 30.5501 83.0959 30.5501C86.6215 30.5501 89.1563 28.141 89.1563 24.6856C89.1563 20.9815 86.2072 18.2753 82.1514 18.2753L82.1565 18.2777ZM97.0283 18.6866C95.6669 18.6866 94.4523 19.1815 93.5644 20.0548C93.5539 20.0653 93.5405 20.0724 93.5259 20.0754C93.5113 20.0783 93.4962 20.0768 93.4824 20.0711C93.4687 20.0655 93.4569 20.0558 93.4486 20.0435C93.4403 20.0312 93.4358 20.0167 93.4357 20.0018V18.9505C93.4358 18.9306 93.4318 18.911 93.4242 18.8927C93.4166 18.8743 93.4053 18.8577 93.3912 18.8438C93.3771 18.8299 93.3603 18.8189 93.3419 18.8115C93.3235 18.8041 93.3037 18.8005 93.2839 18.8008H90.6616C90.6417 18.8005 90.622 18.8041 90.6036 18.8115C90.5852 18.8189 90.5684 18.8299 90.5543 18.8438C90.5401 18.8577 90.5289 18.8743 90.5213 18.8927C90.5136 18.911 90.5097 18.9306 90.5098 18.9505V33.9698C90.5097 33.9897 90.5136 34.0094 90.5212 34.0277C90.5288 34.0461 90.5401 34.0627 90.5542 34.0767C90.5683 34.0906 90.5851 34.1016 90.6036 34.109C90.622 34.1164 90.6417 34.12 90.6616 34.1197H93.3533C93.3732 34.1201 93.3929 34.1164 93.4114 34.1091C93.4299 34.1017 93.4467 34.0907 93.4609 34.0767C93.475 34.0628 93.4863 34.0461 93.4939 34.0278C93.5015 34.0094 93.5054 33.9897 93.5054 33.9698V29.0446C93.5054 28.9786 93.5852 28.9458 93.6338 28.9889C94.5193 29.8012 95.69 30.2761 97.031 30.2761C100.189 30.2761 102.651 27.755 102.651 24.48C102.651 21.2049 100.186 18.684 97.031 18.684L97.0283 18.6866ZM96.5215 27.7323C94.7251 27.7323 93.3637 26.3232 93.3637 24.4596C93.3637 22.5962 94.7224 21.1873 96.5215 21.1873C98.3205 21.1873 99.6764 22.5733 99.6764 24.4596C99.6764 26.3458 98.3381 27.7321 96.5188 27.7321L96.5215 27.7323Z" fill="white"/>
</g>
</svg>
